<svg width="48" height="48" viewBox="0 0 48 48" fill="none" xmlns="http://www.w3.org/2000/svg">
<path fill-rule="evenodd" clip-rule="evenodd" d="M39.1614 38.7795C36.43 41.5109 33.1273 43.3298 29.6371 44.2331C22.5799 46.1923 14.6992 44.3977 9.15076 38.8492C0.949748 30.6482 0.949747 17.3518 9.15076 9.15076C14.6994 3.60207 22.5807 1.80755 29.6381 3.76719C33.1274 4.67043 36.4297 6.4888 39.1614 9.22052C47.3239 17.383 47.3239 30.617 39.1614 38.7795ZM33.9008 26.2302C37.8595 22.2715 38.9047 16.5025 37.0363 11.588C43.7558 18.6389 43.653 29.8028 36.7279 36.7279C34.4551 39.0008 31.7256 40.5388 28.8348 41.3418C28.5943 41.4033 28.3528 41.4597 28.1104 41.5111C27.5354 41.6329 26.8029 41.1711 26.8068 40.2296L26.8435 31.4242C26.8465 30.7104 27.4312 29.9172 28.4712 29.5755C30.4579 28.9227 32.3247 27.8063 33.9008 26.2302ZM23.8069 40.2171C23.8043 40.8353 23.9348 41.4433 24.1749 41.9992C19.5102 42.0442 14.8313 40.2871 11.2721 36.7279C4.24264 29.6985 4.24264 18.3015 11.2721 11.2721C15.3503 7.19386 20.8986 5.48167 26.2112 6.13551C26.331 6.18431 26.4591 6.21829 26.5937 6.23493C27.147 6.3034 27.6977 6.39766 28.2439 6.51771C29.5284 7.04277 30.7333 7.82697 31.7795 8.87321C34.4253 11.519 35.4072 15.1985 34.7253 18.6116C34.1639 17.4945 33.4172 16.4468 32.4853 15.5148C27.799 10.8285 20.201 10.8285 15.5147 15.5148C10.8284 20.2011 10.8284 27.7991 15.5147 32.4854C17.8136 34.7843 20.8142 35.9548 23.8244 35.9988L23.8069 40.2171ZM23.8369 32.9987C21.5863 32.9584 19.3516 32.0796 17.636 30.3641C14.1213 26.8494 14.1213 21.1509 17.636 17.6362C21.1508 14.1214 26.8492 14.1214 30.364 17.6362C31.809 19.0812 32.6593 20.8926 32.9164 22.7722C32.5796 23.2404 32.2006 23.6877 31.7795 24.1089C30.5433 25.3451 29.085 26.216 27.5348 26.7254C25.6492 27.345 23.8534 29.0459 23.8435 31.4117L23.8369 32.9987Z" fill="#EDEDED"/>
</svg>
